<?xml version="1.0" encoding="UTF-8"?> <svg xmlns="http://www.w3.org/2000/svg" xmlns:xlink="http://www.w3.org/1999/xlink" version="1.1" id="Layer_1" x="0px" y="0px" viewBox="0 0 1385 232.1" style="enable-background:new 0 0 1385 232.1;" xml:space="preserve"> <style type="text/css"> .st0{fill:#FFFFFF;} </style> <g> <g> <g> <path class="st0" d="M926.2,70.4H968c0.7,0,1.3-0.2,1.8-0.7c0.5-0.4,0.8-1,0.8-1.7v-9.2c0-0.7-0.3-1.3-0.8-1.7 c-0.5-0.4-1.1-0.7-1.8-0.7h-27.2c-0.6,0-1.1-0.2-1.5-0.5c-0.4-0.4-0.6-1-0.6-2V4.3c0-0.8-0.2-1.4-0.7-1.8 c-0.5-0.4-1.1-0.7-1.9-0.7h-9.9c-0.8,0-1.4,0.2-1.9,0.7c-0.5,0.5-0.7,1.1-0.7,1.8V68c0,0.6,0.2,1.2,0.6,1.7 C924.7,70.2,925.3,70.4,926.2,70.4z"></path> </g> <g> <path class="st0" d="M1123.2,63.5c4.4-4.8,6.5-11.9,6.5-21.2V3.7c0-0.8-0.2-1.4-0.7-1.8c-0.5-0.4-1.1-0.7-1.9-0.7h-9.9 c-0.8,0-1.4,0.2-1.9,0.7c-0.5,0.5-0.7,1.1-0.7,1.8v33.8c0,3.4-0.2,6.2-0.5,8.6c-0.3,2.4-0.9,4.4-1.8,6c-0.9,1.6-2.1,2.7-3.7,3.5 c-1.6,0.7-3.7,1.1-6.2,1.1c-2.5,0-4.5-0.4-6.1-1.1c-1.6-0.7-2.8-1.9-3.7-3.5c-0.9-1.6-1.5-3.6-1.8-6c-0.3-2.4-0.5-5.3-0.5-8.6 V3.7c0-0.8-0.2-1.4-0.7-1.8c-0.5-0.4-1.1-0.7-1.9-0.7h-9.9c-0.8,0-1.4,0.2-1.9,0.7c-0.5,0.5-0.7,1.1-0.7,1.8v38.6 c0,9.3,2.2,16.3,6.5,21.2c4.4,4.8,11.2,7.2,20.7,7.2C1111.9,70.7,1118.8,68.3,1123.2,63.5z"></path> </g> <g> <path class="st0" d="M1171.4,69.5c0.5-0.5,0.7-1,0.7-1.7v-32c0-0.8,0.1-1.3,0.3-1.7c0.2-0.4,0.5-0.6,0.8-0.7 c0.3-0.1,0.6-0.1,0.9,0c0.3,0.1,0.5,0.2,0.6,0.4l22.6,35.2c0.5,0.8,1.5,1.2,2.8,1.2h9.3c0.8,0,1.4-0.2,1.9-0.7 c0.5-0.5,0.7-1,0.7-1.7V4.1c0-0.8-0.2-1.4-0.7-1.8c-0.5-0.4-1.1-0.7-1.9-0.7h-9.9c-0.8,0-1.4,0.2-1.9,0.7 c-0.5,0.5-0.7,1.1-0.7,1.8v32.2c0,0.8-0.1,1.4-0.3,1.8c-0.2,0.4-0.4,0.6-0.7,0.7c-0.3,0.1-0.5,0.1-0.8-0.1 c-0.3-0.2-0.5-0.4-0.7-0.6L1172,3c-0.8-1-1.6-1.5-2.5-1.5h-9.9c-0.8,0-1.4,0.2-1.9,0.7c-0.5,0.5-0.7,1.1-0.7,1.8v63.7 c0,0.6,0.2,1.2,0.7,1.7c0.5,0.5,1.1,0.7,1.9,0.7h9.9C1170.3,70.2,1170.9,69.9,1171.4,69.5z"></path> </g> <g> <path class="st0" d="M1248.7,62.2c3.4,3.2,7.4,5.7,12,7.5c4.6,1.8,9.5,2.8,14.7,2.8c5.3,0,10.1-0.8,14.5-2.5 c4.4-1.7,8.4-4.1,11.8-7.3c0.5-0.5,0.7-1.1,0.8-1.7c0-0.6-0.2-1.2-0.8-1.7l-6.7-6.3c-0.6-0.5-1.2-0.8-1.9-0.8 c-0.7,0-1.4,0.3-1.9,0.8c-2.2,1.7-4.6,3-7.2,4.1c-2.6,1-5.4,1.5-8.6,1.5c-3.3,0-6.2-0.5-9-1.6c-2.7-1.1-5.1-2.6-7.2-4.5 c-2-1.9-3.6-4.1-4.8-6.7c-1.1-2.6-1.7-5.4-1.7-8.4c0-3,0.6-5.7,1.7-8.4c1.1-2.6,2.7-4.9,4.8-6.8c2-1.9,4.4-3.4,7.2-4.5 c2.7-1.1,5.7-1.6,9-1.6c3.1,0,6,0.5,8.6,1.5c2.6,1,5,2.4,7.2,4.1c0.6,0.5,1.2,0.8,1.9,0.8c0.7,0,1.4-0.3,1.9-0.8l6.7-6.3 c0.6-0.5,0.8-1.1,0.8-1.7c0-0.6-0.3-1.2-0.8-1.7c-3.5-3.2-7.4-5.7-11.8-7.3c-4.4-1.7-9.3-2.5-14.5-2.5c-5.2,0-10.1,0.9-14.7,2.8 c-4.6,1.8-8.6,4.3-12,7.5c-3.4,3.2-6.1,6.9-8.1,11.2c-2,4.3-3,8.9-3,13.8c0,4.9,1,9.5,3,13.8C1242.5,55.2,1245.2,59,1248.7,62.2z "></path> </g> <g> <path class="st0" d="M1379.5,1.4h-9.9c-0.8,0-1.4,0.2-1.9,0.7c-0.5,0.5-0.7,1.1-0.7,1.8v23.6c0,0.7-0.2,1.3-0.7,1.8 c-0.5,0.5-1,0.7-1.6,0.7h-22.6c-0.7,0-1.2-0.2-1.7-0.7c-0.4-0.5-0.6-1.1-0.6-1.8V3.9c0-0.8-0.2-1.4-0.7-1.8 c-0.5-0.4-1.1-0.7-1.9-0.7h-9.9c-0.8,0-1.4,0.2-1.9,0.7c-0.5,0.5-0.7,1.1-0.7,1.8v63.7c0,0.6,0.2,1.2,0.7,1.7 c0.5,0.5,1.1,0.7,1.9,0.7h9.9c0.8,0,1.4-0.2,1.9-0.7c0.5-0.5,0.7-1,0.7-1.7V46.4c0-0.7,0.2-1.3,0.7-1.7c0.5-0.4,1.1-0.7,1.9-0.7 h22.3c0.7,0,1.2,0.2,1.7,0.7c0.4,0.4,0.6,1,0.6,1.7v21.2c0,0.6,0.2,1.2,0.7,1.7c0.5,0.5,1.1,0.7,1.9,0.7h9.9 c0.8,0,1.4-0.2,1.9-0.7c0.5-0.5,0.7-1,0.7-1.7V3.9c0-0.8-0.2-1.4-0.7-1.8C1380.9,1.6,1380.3,1.4,1379.5,1.4z"></path> </g> <path class="st0" d="M1022.5,2.5c-0.6,0.3-1,0.7-1.2,1.1l-28.6,64.1c-0.3,0.7-0.3,1.4,0.1,2c0.4,0.6,0.9,1,1.7,1h10.9 c0.8,0,1.7,0,2.7-0.1c1-0.1,1.7-0.6,2.1-1.5l2.6-6.3c1.1-2.9,13.1-33.8,13.5-34.3c0.3-0.4,1.1-0.9,1.9,0 c0.4,0.5,11.6,29.5,12,30.2L1044,69c0.4,0.9,1.1,1.4,2.1,1.5c1,0.1,1.9,0.1,2.7,0.1h10.9c1,0,1.7-0.3,1.9-1c0.2-0.7,0.2-1.3-0.1-2 l-28.8-64.2c-0.2-0.4-0.5-0.7-1.1-1c-0.6-0.3-1.2-0.4-1.9-0.5h-5.3C1023.8,2,1023.1,2.2,1022.5,2.5z"></path> </g> <g> <g> <path class="st0" d="M439.3,69.1h40.8c0.7,0,1.3-0.2,1.8-0.7c0.5-0.4,0.8-1,0.8-1.7v-9c0-0.7-0.3-1.3-0.8-1.7 c-0.5-0.4-1.1-0.7-1.8-0.7h-26.6c-0.6,0-1.1-0.2-1.5-0.5c-0.4-0.3-0.6-1-0.6-1.9V4.5c0-0.8-0.2-1.4-0.7-1.8 C450.3,2.3,449.7,2,449,2h-9.6c-0.7,0-1.4,0.2-1.8,0.7c-0.5,0.4-0.7,1-0.7,1.8v62.3c0,0.6,0.2,1.2,0.6,1.7 C437.8,68.9,438.4,69.1,439.3,69.1z"></path> </g> <g> <path class="st0" d="M513.5,69.1h9.6c0.7,0,1.4-0.2,1.8-0.7c0.5-0.5,0.7-1,0.7-1.7V4.5c0-0.8-0.2-1.4-0.7-1.8 c-0.5-0.4-1.1-0.7-1.8-0.7h-9.6c-0.7,0-1.4,0.2-1.8,0.7c-0.5,0.4-0.7,1-0.7,1.8v62.3c0,0.6,0.2,1.2,0.7,1.7 C512.1,68.9,512.8,69.1,513.5,69.1z"></path> </g> <g> <g> <path class="st0" d="M551.4,69.1h17.9c5.2,0,9.7-0.4,13.3-1.3c3.7-0.8,6.6-2.1,8.9-3.7c2.3-1.6,4-3.6,5-5.9c1-2.3,1.6-5,1.6-8 c0-6-2.3-10.7-7-14.3c-0.5-0.4-0.9-0.8-1-1.2c-0.1-0.4,0-0.9,0.4-1.4c1.4-1.7,2.5-3.5,3.3-5.5c0.8-2,1.3-4.2,1.3-6.8 c0-3-0.5-5.7-1.6-8c-1-2.3-2.7-4.3-5-6c-2.3-1.6-5.3-2.9-8.9-3.7c-3.7-0.8-8.1-1.3-13.3-1.3h-14.8c-0.7,0-1.4,0.2-1.8,0.7 c-0.5,0.5-0.7,1.1-0.7,1.7v62.3c0,0.7,0.2,1.3,0.7,1.7C550.1,68.9,550.7,69.1,551.4,69.1z M563.6,18.2c0-0.6,0.2-1.2,0.6-1.7 c0.4-0.5,0.9-0.7,1.6-0.7h0.5c5.1,0,8.7,0.6,10.9,1.7c2.2,1.1,3.3,2.7,3.3,4.7c0,2-1.1,3.5-3.3,4.7c-2.2,1.2-6,1.7-11.3,1.7 c-0.6,0-1.1-0.2-1.5-0.6c-0.4-0.4-0.6-0.8-0.6-1.4V18.2z M563.6,44.6c0-0.6,0.2-1.1,0.6-1.5c0.4-0.4,0.9-0.6,1.5-0.6h3.6 c5.1,0,8.7,0.6,10.9,1.8c2.2,1.2,3.2,2.8,3.2,4.7c0,2-1.1,3.6-3.2,4.7c-2.2,1.1-5.8,1.7-10.9,1.7h-3.7c-0.6,0-1.1-0.2-1.5-0.7 c-0.4-0.5-0.6-1.1-0.6-1.7V44.6z"></path> </g> </g> <g> <path class="st0" d="M622.2,69.1H663c0.7,0,1.3-0.2,1.8-0.7c0.5-0.4,0.8-1,0.8-1.7v-9c0-0.7-0.3-1.3-0.8-1.7 c-0.5-0.4-1.1-0.7-1.8-0.7h-26.5c-0.5,0-1-0.2-1.5-0.6c-0.4-0.4-0.7-0.9-0.7-1.5v-7.6c0-0.6,0.2-1.1,0.6-1.5 c0.4-0.4,0.9-0.6,1.4-0.6H663c0.7,0,1.3-0.2,1.8-0.7c0.5-0.4,0.8-1,0.8-1.7v-9c0-0.7-0.3-1.3-0.8-1.7c-0.5-0.4-1.1-0.7-1.8-0.7 h-26.6c-0.6,0-1.1-0.2-1.5-0.7c-0.4-0.5-0.6-1.1-0.6-1.7v-9.4c0-0.6,0.2-1.1,0.6-1.6c0.4-0.5,0.9-0.8,1.5-0.8H663 c0.7,0,1.3-0.2,1.8-0.7c0.5-0.5,0.8-1.1,0.8-1.7V4.5c0-0.7-0.3-1.3-0.8-1.7C664.3,2.3,663.7,2,663,2h-40.8 c-0.7,0-1.4,0.2-1.8,0.7c-0.5,0.4-0.7,1-0.7,1.8v62.3c0,0.6,0.2,1.2,0.7,1.7C620.8,68.9,621.4,69.1,622.2,69.1z"></path> </g> <g> <g> <path class="st0" d="M734.1,68.7c0.4,0.3,1,0.5,1.9,0.5h10.8c1.1,0,1.8-0.3,1.9-0.9c0.1-0.6,0-1.3-0.3-2l-8.5-16.4 c-0.5-1.3-0.7-2.2-0.4-2.9c0.3-0.7,0.9-1.4,2-2.2c3-2.4,5.6-5.2,7.5-8.5c2-3.2,2.9-6.6,2.9-10.1c0-4.5-0.7-8.3-2.1-11.4 c-1.4-3.1-3.5-5.6-6.2-7.5c-2.7-1.9-6.1-3.2-10.1-4.1c-4-0.8-8.5-1.2-13.6-1.2h-16.9c-0.7,0-1.4,0.2-1.8,0.7 c-0.5,0.4-0.7,1-0.7,1.8v62.3c0,0.6,0.2,1.2,0.7,1.7c0.5,0.5,1.1,0.7,1.8,0.7h9.6c0.7,0,1.4-0.2,1.8-0.7c0.5-0.5,0.7-1,0.7-1.7 V54.9c0-1,0.7-1.7,2-2.2c0.8-0.3,1.5-0.4,2-0.5c0.5-0.1,1.1-0.1,1.8-0.2c0.7-0.1,1.4,0,2,0.1s1,0.3,1.1,0.7l8.9,14.9 C733.4,68,733.7,68.4,734.1,68.7z M726.9,38.1c-2.1,0.6-4.4,0.9-6.9,0.9h-2.5c-0.7,0-1.2-0.2-1.6-0.7c-0.4-0.4-0.6-1-0.6-1.7 V17.9c0-0.6,0.2-1.1,0.7-1.5c0.4-0.4,1-0.6,1.6-0.6h2.4c2.5,0,4.8,0.2,6.9,0.5c2.1,0.3,3.9,0.9,5.4,1.7c1.5,0.9,2.7,2,3.6,3.5 c0.8,1.5,1.3,3.4,1.3,5.8c0,1.6-0.4,3.1-1.3,4.5c-0.8,1.4-2,2.6-3.6,3.7S729,37.5,726.9,38.1z"></path> </g> </g> <g> <path class="st0" d="M825.5,13.4V4.5c0-0.7-0.2-1.3-0.8-1.7C824.2,2.3,823.7,2,823,2h-46c-0.7,0-1.4,0.2-1.8,0.7 c-0.5,0.5-0.7,1.1-0.7,1.7v8.9c0,0.7,0.2,1.3,0.7,1.7c0.5,0.5,1.1,0.7,1.8,0.7h13.6c0.5,0,1,0.3,1.4,0.8c0.4,0.5,0.6,1,0.6,1.6 v48.6c0,0.6,0.2,1.2,0.7,1.7c0.5,0.5,1.1,0.7,1.8,0.7h9.6c0.7,0,1.4-0.2,1.8-0.7c0.5-0.5,0.7-1,0.7-1.7V17.9c0-0.5,0.2-1,0.6-1.4 c0.4-0.4,0.9-0.7,1.5-0.7H823c0.7,0,1.3-0.2,1.8-0.7C825.3,14.6,825.5,14.1,825.5,13.4z"></path> </g> <g> <path class="st0" d="M894.5,3c-0.2-0.7-0.7-1-1.5-1h-9.1c-1.1,0-2,0.1-2.6,0.2c-0.7,0.1-1.2,0.5-1.5,1.2l-10,19.7 c-0.2,0.4-0.6,0.6-1.1,0.6c-0.5,0-1-0.4-1.4-1.2l-9.6-19c-0.3-0.7-0.8-1.1-1.5-1.2c-0.7-0.1-1.6-0.2-2.6-0.2h-9.1 c-0.7,0-1.2,0.3-1.5,1c-0.2,0.7-0.2,1.3,0.2,2l17,34.1c0.3,0.8,0.7,1.4,1,2.1c0.3,0.6,0.5,1.3,0.5,2.1v23.4 c0,0.6,0.2,1.2,0.7,1.7c0.5,0.5,1.1,0.7,1.8,0.7h9.6c0.7,0,1.4-0.2,1.8-0.7c0.5-0.5,0.7-1,0.7-1.7V43.3c0-0.7,0.1-1.4,0.5-2.2 c0.3-0.8,0.6-1.5,1-2.1l16.9-33.9C894.7,4.4,894.8,3.7,894.5,3z"></path> </g> </g> <g> <path class="st0" d="M590.5,130.1c3.8-3.5,8.3-6.4,13.4-8.4c5.1-2,10.7-3.1,16.8-3.1c5.8,0,11.2,1,16,2.9 c4.8,1.9,9.3,4.5,13.5,7.6c1,1,2.2,1.4,3.6,1.4c1.4,0,2.6-0.5,3.6-1.4l12.6-11.8c1-1,1.5-2,1.5-3.3c-0.1-1.2-0.5-2.3-1.5-3.3 c-6.5-6-13.9-10.6-22.2-13.7c-8.3-3.1-17.4-4.7-27.2-4.7c-9.7,0-18.9,1.7-27.5,5.2c-8.6,3.4-16.1,8.1-22.5,14.1 c-6.4,6-11.5,13-15.1,21c-3.7,8-5.6,16.6-5.6,25.8c0,9.2,1.9,17.8,5.6,25.8c3.7,8,8.7,15,15.1,21c6.4,6,13.9,10.7,22.5,14.1 c8.6,3.4,17.8,5.2,27.5,5.2c9.9,0,18.9-1.6,27.2-4.7c8.3-3.1,15.7-7.7,22.2-13.7c0.9-1,1.4-2.1,1.5-3.3c0.1-1.2-0.4-2.3-1.5-3.3 l-12.6-11.8c-1-1-2.2-1.4-3.6-1.4c-1.4,0-2.6,0.5-3.6,1.4c-4.2,3.1-8.7,5.7-13.5,7.6c-4.9,1.9-10.2,2.9-16,2.9 c-6.1,0-11.7-1-16.8-3.1c-5.1-2-9.6-4.9-13.4-8.4c-3.8-3.6-6.8-7.8-8.9-12.6c-2.1-4.8-3.2-10.1-3.2-15.7c0-5.5,1.1-10.8,3.2-15.6 C583.7,137.9,586.7,133.7,590.5,130.1z"></path> </g> <g> <path class="st0" d="M933.7,112.5c-6.2-5.8-13.4-10.3-21.9-13.6c-8.4-3.3-17.6-4.9-27.4-4.9H845c-1.4,0-2.6,0.4-3.5,1.3 c-0.9,0.9-1.4,2-1.4,3.4V218c0,1.2,0.5,2.3,1.4,3.2c0.9,0.9,2.1,1.4,3.5,1.4h39.5c9.9,0,19-1.6,27.4-4.9 c8.4-3.3,15.7-7.7,21.9-13.5c6.2-5.7,11-12.5,14.5-20.3c3.5-7.8,5.3-16.3,5.3-25.4c0-9.2-1.7-17.7-5.3-25.5 C944.7,125.1,939.9,118.3,933.7,112.5z M922.3,173.5c-1.9,4.6-4.6,8.6-8.1,11.9c-3.5,3.4-7.8,6-12.8,8c-5,1.9-10.7,2.9-16.9,2.9 h-11.3c-1.4,0-2.6-0.4-3.5-1.3c-0.9-0.8-1.4-2-1.4-3.4V125c0-1.3,0.4-2.4,1.2-3.3c0.8-0.8,1.7-1.3,2.9-1.3h12 c6.2,0,11.9,1,16.9,2.9c5,1.9,9.3,4.6,12.8,8.1c3.5,3.4,6.2,7.5,8.1,12c1.9,4.6,2.8,9.6,2.8,15 C925.1,163.9,924.1,168.9,922.3,173.5z"></path> </g> <g> <path class="st0" d="M1065.9,94.1h-78.2c-1.4,0-2.6,0.4-3.5,1.3c-0.9,0.9-1.4,2-1.4,3.4V218c0,1.2,0.5,2.3,1.4,3.2 c0.9,0.9,2.1,1.4,3.5,1.4h78.2c1.3,0,2.4-0.4,3.4-1.3c1-0.8,1.5-1.9,1.5-3.3v-17.2c0-1.3-0.5-2.4-1.5-3.3c-1-0.8-2.1-1.3-3.4-1.3 h-50.7c-1.1,0-2-0.4-2.8-1.1c-0.9-0.7-1.3-1.7-1.3-2.9v-14.5c0-1.1,0.4-2,1.2-2.8c0.8-0.8,1.7-1.2,2.7-1.2h50.9 c1.3,0,2.4-0.4,3.4-1.3c1-0.8,1.5-1.9,1.5-3.3v-17.2c0-1.3-0.5-2.4-1.5-3.3c-1-0.8-2.1-1.3-3.4-1.3H1015c-1.2,0-2.1-0.5-2.8-1.4 c-0.7-0.9-1.1-2-1.1-3.3V125c0-1.1,0.4-2.1,1.1-3.1c0.7-1,1.6-1.5,2.8-1.5h50.9c1.3,0,2.4-0.5,3.4-1.4c1-0.9,1.5-2,1.5-3.3v-17 c0-1.3-0.5-2.4-1.5-3.3C1068.3,94.5,1067.2,94.1,1065.9,94.1z"></path> </g> <g> <path class="st0" d="M1236.6,95.3c-1-0.8-2.2-1.3-3.6-1.3h-20.2c-1,0-2,0.3-2.9,0.9c-0.9,0.6-1.6,1.4-1.9,2.3l-28.6,74.2 c-0.4,0.8-1.3,1.5-2.7,1.9c-1.4,0.4-2.7-0.4-3.7-2.6l-28.4-73.4c-0.9-2.2-2.5-3.3-4.7-3.3h-20.4c-1.4,0-2.6,0.4-3.5,1.3 c-0.9,0.9-1.4,2-1.4,3.4l-9.7,119.2c0,1.2,0.5,2.3,1.4,3.2c0.9,0.9,2.1,1.4,3.5,1.4h18.5c1.4,0,2.6-0.5,3.5-1.4 c0.9-0.9,1.4-2,1.4-3.2l3.9-43.8c0.3-2.5,1.1-4.1,2.4-4.6c1.4-0.5,2.4,0.1,3.2,1.9l19.8,48.3c0.4,1,1.1,1.7,2.1,2.1 c1,0.4,2.2,0.6,3.5,0.6h16.3c1.3,0,2.5-0.2,3.6-0.6c1.1-0.4,1.9-1.1,2.3-2.1l19-47.2c1-2,2.3-3.1,3.7-3.1c1.4,0,2.2,1.1,2.3,3.3 l4.3,45.2c0,1.2,0.5,2.3,1.4,3.2c0.9,0.9,2.1,1.4,3.5,1.4h18.5c1.4,0,2.6-0.5,3.5-1.4c0.9-0.9,1.4-2,1.4-3.2L1238,98.8 C1238,97.3,1237.5,96.2,1236.6,95.3z"></path> </g> <g> <path class="st0" d="M1370.7,94.1h-17.5c-2.1,0-3.8,0.1-5,0.4c-1.3,0.2-2.3,1-2.9,2.4l-19,37.6c-0.4,0.7-1.1,1.1-2.1,1.1 c-1,0-1.9-0.8-2.7-2.4l-18.5-36.4c-0.7-1.3-1.6-2.1-2.9-2.4c-1.3-0.2-3-0.4-5.1-0.4h-17.5c-1.4,0-2.4,0.6-2.8,1.9 c-0.5,1.3-0.4,2.6,0.3,3.9l32.5,65.3c0.6,1.4,1.3,2.8,1.8,4c0.6,1.2,0.9,2.5,0.9,4V218c0,1.2,0.5,2.3,1.4,3.2 c0.9,0.9,2.1,1.4,3.5,1.4h18.5c1.4,0,2.6-0.5,3.5-1.4c0.9-0.9,1.4-2,1.4-3.2v-44.9c0-1.3,0.3-2.7,0.9-4.3c0.6-1.5,1.2-2.9,1.8-4.1 l32.3-64.9c0.6-1.3,0.8-2.6,0.3-3.9C1373.1,94.7,1372.1,94.1,1370.7,94.1z"></path> </g> <path class="st0" d="M763.3,95.3c-0.3-0.7-1-1.4-2.1-1.9c-1.1-0.5-2.3-0.8-3.5-1h-9.9c-1.2,0.2-2.4,0.5-3.6,1.1 c-1.2,0.6-1.9,1.3-2.2,2l-53.6,119.9c-0.6,1.3-0.6,2.6,0.1,3.8c0.7,1.2,1.8,1.8,3.3,1.8h20.4c1.5,0,3.2-0.1,5.1-0.3 c1.9-0.2,3.2-1.1,3.9-2.8l4.8-11.8c2.1-5.4,24.5-63.2,25.3-64.2c0.5-0.7,2.1-1.7,3.5,0c0.8,1,21.8,55.3,22.4,56.6l7.3,19.4 c0.7,1.7,2,2.6,3.9,2.8c1.9,0.2,3.6,0.3,5.1,0.3h20.4c1.9,0,3.1-0.6,3.6-1.9c0.5-1.3,0.4-2.5-0.2-3.7L763.3,95.3z"></path> <g> <path class="st0" d="M485,95.3c-0.3-0.7-1-1.4-2.1-1.9c-1.1-0.5-2.3-0.8-3.5-1h-9.9c-1.2,0.2-2.4,0.5-3.6,1.1 c-1.2,0.6-1.9,1.3-2.2,2L410,215.4c-0.6,1.3-0.6,2.6,0.1,3.8c0.7,1.2,1.8,1.8,3.3,1.8h20.4c1.5,0,3.2-0.1,5.1-0.3 c1.9-0.2,3.2-1.1,3.9-2.8l4.8-11.8c2.1-5.4,24.5-63.2,25.3-64.2c0.5-0.7,2.1-1.7,3.5,0c0.8,1,21.8,55.3,22.4,56.6l7.3,19.4 c0.7,1.7,2,2.6,3.9,2.8c1.9,0.2,3.6,0.3,5.1,0.3h20.4c1.9,0,3.1-0.6,3.6-1.9c0.5-1.3,0.4-2.5-0.2-3.7L485,95.3z"></path> </g> <g> <g> <path class="st0" d="M250.7,147.6c-2.8,3.7-8.5,3.3-10.8-0.7l-44.6-77.8l-15.2-26.5L159.2,6.2c-1.2-2-3.3-3.3-5.6-3.3H119 c-5,0-8.1,5.4-5.6,9.7l17.2,30.1l39.9,69.6l68.8,115.4c2.4,4.1,8.3,4.2,10.9,0.3l41.4-61c1.4-2.1,1.5-4.7,0.3-6.9l-17.1-29.6 c-2.3-4-8-4.4-10.8-0.7L250.7,147.6z"></path> </g> <g> <path class="st0" d="M141,147.6c-2.8,3.7-8.5,3.3-10.8-0.7L85.6,69.2L70.4,42.7L49.5,6.2c-1.2-2-3.3-3.3-5.6-3.3H9.3 c-5,0-8.1,5.4-5.6,9.7l17.2,30.1l39.9,69.6l68.8,115.4c2.4,4.1,8.3,4.2,10.9,0.3l41.4-61c1.4-2.1,1.5-4.7,0.3-6.9l-17.1-29.6 c-2.3-4-8-4.4-10.8-0.7L141,147.6z"></path> </g> <path class="st0" d="M332.7,42.7h39.8c2.3,0,4.5-1.2,5.6-3.3l15.4-26.8c2.5-4.3-0.6-9.7-5.6-9.7h-13.7h-24.6h-39.7h-9.8H267h-3.8 h-12.5h-21.9c-5,0-8.1,5.4-5.6,9.7l11,19.2l6.3,10.9l18.5,32.2l18.8,32.7l0.1,0l24.7,42.8c2.5,4.3,8.6,4.3,11.2,0.1l17.5-29.2 c1.2-2,1.2-4.5,0.1-6.6l-22.8-39.8l0,0l-12.9-22.5c-2.5-4.3,0.6-9.7,5.6-9.7h25.8L332.7,42.7L332.7,42.7z"></path> </g> </g> </svg> 